<svg width="20" height="20" viewBox="0 0 20 20" fill="none" xmlns="http://www.w3.org/2000/svg">
<path d="M5.58003 2.08L4.15003 0.65C1.75003 2.48 0.170029 5.3 0.0300293 8.5H2.03003C2.10087 7.23181 2.45686 5.99593 3.0715 4.88439C3.68614 3.77284 4.5436 2.81425 5.58003 2.08ZM17.97 8.5H19.97C19.82 5.3 18.24 2.48 15.85 0.65L14.43 2.08C15.462 2.81787 16.3157 3.77751 16.9282 4.88846C17.5408 5.99942 17.8968 7.23347 17.97 8.5ZM16 9C16 5.93 14.36 3.36 11.5 2.68V2C11.5 1.17 10.83 0.5 10 0.5C9.17003 0.5 8.50003 1.17 8.50003 2V2.68C5.63003 3.36 4.00003 5.92 4.00003 9V14L2.00003 16V17H18V16L16 14V9ZM10 20C10.14 20 10.27 19.99 10.4 19.96C11.05 19.82 11.58 19.38 11.84 18.78C11.94 18.54 11.99 18.28 11.99 18H7.99003C8.00003 19.1 8.89003 20 10 20Z" fill="#F7A600"/>
</svg>
