<svg width="40" height="41" viewBox="0 0 40 41" fill="none" xmlns="http://www.w3.org/2000/svg">
<g clip-path="url(#clip0_3861_958)">
<path d="M32.5 13.6027V28.0183C32.4971 27.5453 32.342 27.0855 32.0573 26.7055C31.7725 26.3255 31.3728 26.045 30.9161 25.9047H30.9226L11.0153 18.9429C9.96941 18.4852 9.08041 17.7369 8.45636 16.7889C7.83231 15.8408 7.50006 14.734 7.5 13.6027V2.8252L31.0453 11.5147C31.4732 11.6751 31.8416 11.9605 32.1014 12.333C32.3613 12.7056 32.5003 13.1475 32.5 13.6001V13.6219" fill="#ED7300"/>
<path d="M31.0453 30.1194L7.5 38.8255V28.0339C7.49974 26.9026 7.83185 25.7955 8.45594 24.8475C9.08004 23.8994 9.96921 23.1511 11.0153 22.6937L30.9109 15.7332C31.3665 15.593 31.7653 15.3135 32.05 14.9348C32.3346 14.5561 32.4904 14.0978 32.4948 13.626V28.0339C32.4958 28.492 32.3541 28.9394 32.089 29.315C31.8238 29.6907 31.4481 29.9764 31.013 30.1334" fill="#F9A51A"/>
<path d="M32.5 13.6025V13.6243C32.4955 14.0961 32.3398 14.5544 32.0551 14.9331C31.7705 15.3118 31.3717 15.5913 30.9161 15.7315L16.3652 20.8212V20.8148L30.9226 25.9058H30.9161C31.3728 26.0461 31.7725 26.3266 32.0573 26.7066C32.342 27.0866 32.4971 27.5464 32.5 28.0194" fill="#F18A00"/>
</g>
<defs>
<clipPath id="clip0_3861_958">
<rect width="25" height="36" fill="white" transform="translate(7.5 2.8252)"/>
</clipPath>
</defs>
</svg>
