<svg width="19" height="14" viewBox="0 0 19 14" fill="none" xmlns="http://www.w3.org/2000/svg">
<path d="M1.5 9H3.5C4.05 9 4.5 8.55 4.5 8V6C4.5 5.45 4.05 5 3.5 5H1.5C0.95 5 0.5 5.45 0.5 6V8C0.5 8.55 0.95 9 1.5 9ZM1.5 14H3.5C4.05 14 4.5 13.55 4.5 13V11C4.5 10.45 4.05 10 3.5 10H1.5C0.95 10 0.5 10.45 0.5 11V13C0.5 13.55 0.95 14 1.5 14ZM1.5 4H3.5C4.05 4 4.5 3.55 4.5 3V1C4.5 0.45 4.05 0 3.5 0H1.5C0.95 0 0.5 0.45 0.5 1V3C0.5 3.55 0.95 4 1.5 4ZM6.5 9H17.5C18.05 9 18.5 8.55 18.5 8V6C18.5 5.45 18.05 5 17.5 5H6.5C5.95 5 5.5 5.45 5.5 6V8C5.5 8.55 5.95 9 6.5 9ZM6.5 14H17.5C18.05 14 18.5 13.55 18.5 13V11C18.5 10.45 18.05 10 17.5 10H6.5C5.95 10 5.5 10.45 5.5 11V13C5.5 13.55 5.95 14 6.5 14ZM5.5 1V3C5.5 3.55 5.95 4 6.5 4H17.5C18.05 4 18.5 3.55 18.5 3V1C18.5 0.45 18.05 0 17.5 0H6.5C5.95 0 5.5 0.45 5.5 1Z" fill="#344750"/>
</svg>
