<svg width="19" height="18" viewBox="0 0 19 18" fill="none" xmlns="http://www.w3.org/2000/svg">
<path d="M12.8 18L6.225 15.675L1.75 17.45C1.46667 17.6 1.1875 17.5917 0.9125 17.425C0.6375 17.2583 0.5 17.0083 0.5 16.675V2.725C0.5 2.50833 0.5625 2.31667 0.6875 2.15C0.8125 1.98333 0.975 1.85833 1.175 1.775L6.225 0L12.8 2.3L17.25 0.525C17.5333 0.391667 17.8125 0.404167 18.0875 0.5625C18.3625 0.720833 18.5 0.966667 18.5 1.3V15.425C18.5 15.6083 18.4375 15.7667 18.3125 15.9C18.1875 16.0333 18.0333 16.1333 17.85 16.2L12.8 18ZM11.95 16.125V3.5L7.05 1.85V14.475L11.95 16.125Z" fill="#344750"/>
</svg>
