<svg width="17" height="20" viewBox="0 0 17 20" fill="none" xmlns="http://www.w3.org/2000/svg">
<path d="M8.5 10C9.05 10 9.52083 9.80417 9.9125 9.4125C10.3042 9.02083 10.5 8.55 10.5 8C10.5 7.45 10.3042 6.97917 9.9125 6.5875C9.52083 6.19583 9.05 6 8.5 6C7.95 6 7.47917 6.19583 7.0875 6.5875C6.69583 6.97917 6.5 7.45 6.5 8C6.5 8.55 6.69583 9.02083 7.0875 9.4125C7.47917 9.80417 7.95 10 8.5 10ZM8.5 17.35C10.5333 15.4833 12.0417 13.7875 13.025 12.2625C14.0083 10.7375 14.5 9.38333 14.5 8.2C14.5 6.38333 13.9208 4.89583 12.7625 3.7375C11.6042 2.57917 10.1833 2 8.5 2C6.81667 2 5.39583 2.57917 4.2375 3.7375C3.07917 4.89583 2.5 6.38333 2.5 8.2C2.5 9.38333 2.99167 10.7375 3.975 12.2625C4.95833 13.7875 6.46667 15.4833 8.5 17.35ZM8.5 20C5.81667 17.7167 3.8125 15.5958 2.4875 13.6375C1.1625 11.6792 0.5 9.86667 0.5 8.2C0.5 5.7 1.30417 3.70833 2.9125 2.225C4.52083 0.741667 6.38333 0 8.5 0C10.6167 0 12.4792 0.741667 14.0875 2.225C15.6958 3.70833 16.5 5.7 16.5 8.2C16.5 9.86667 15.8375 11.6792 14.5125 13.6375C13.1875 15.5958 11.1833 17.7167 8.5 20Z" fill="#252A3C"/>
</svg>
