<svg width="64" height="64" viewBox="0 0 64 64" fill="none" xmlns="http://www.w3.org/2000/svg">
<rect x="0.5" y="0.5" width="63" height="63" rx="7.5" fill="#F3F4F6"/>
<path d="M23 24V21H25V24H28V26H25V29H23V26H20V24H23ZM26 30V27H29V24H36L37.83 26H41C42.1 26 43 26.9 43 28V40C43 41.1 42.1 42 41 42H25C23.9 42 23 41.1 23 40V30H26ZM33 39C35.76 39 38 36.76 38 34C38 31.24 35.76 29 33 29C30.24 29 28 31.24 28 34C28 36.76 30.24 39 33 39ZM29.8 34C29.8 35.77 31.23 37.2 33 37.2C34.77 37.2 36.2 35.77 36.2 34C36.2 32.23 34.77 30.8 33 30.8C31.23 30.8 29.8 32.23 29.8 34Z" fill="#8F929B"/>
<rect x="0.5" y="0.5" width="63" height="63" rx="7.5" stroke="#8F929B" stroke-dasharray="4 4"/>
</svg>
