<svg width="20" height="17" viewBox="0 0 20 17" fill="none" xmlns="http://www.w3.org/2000/svg">
<path d="M4.66732 6.01074C4.62596 6.01077 4.58577 6.02444 4.55293 6.04964C4.5201 6.07484 4.49646 6.11017 4.48566 6.15017L0.667491 15.6954V16.0293C0.667491 16.2748 0.651659 16.3633 0.855817 16.3633H15.7719C15.955 16.3645 16.1336 16.3061 16.2808 16.197C16.4281 16.0879 16.536 15.9338 16.5885 15.758L20 6.3447V6.01074H4.66732Z" fill="#252A3C"/>
<path d="M4.24316 5.34325H17.9992V3.2502C17.999 3.00825 17.903 2.77628 17.7322 2.60519C17.5615 2.43411 17.3299 2.3379 17.0884 2.33767H8.8388L7.1722 0H0.910795C0.669305 0.00022106 0.437769 0.0964329 0.267009 0.267517C0.09625 0.438601 0.00022064 0.670578 0 0.912528L0 14.8701L3.42736 5.94771C3.4798 5.77212 3.58766 5.61829 3.73474 5.50931C3.88183 5.40033 4.06022 5.34206 4.24316 5.34325Z" fill="#252A3C"/>
</svg>
