<svg width="128" height="34" viewBox="0 0 128 34" fill="none" xmlns="http://www.w3.org/2000/svg">
  <path fill-rule="evenodd" clip-rule="evenodd" d="M12.4668 21.1937C10.6561 21.7426 9.10964 22.0152 7.82371 22.0152C5.63304 22.0152 3.84287 21.2926 2.45923 19.8342C1.07799 18.3685 0.391602 16.4746 0.391602 14.1488C0.391602 11.8231 0.997172 10.0389 2.21073 8.59135C3.43514 7.14498 4.99369 6.4248 6.89244 6.4248C8.69346 6.4248 10.0795 7.06536 11.0554 8.34526C12.0434 9.62637 12.5332 11.4455 12.5332 13.8075L12.5199 14.6434H3.142C3.53526 18.1852 5.2615 19.9573 8.33157 19.9573C9.45103 19.9573 10.8347 19.6569 12.4668 19.0525V21.1937ZM3.26504 12.6156H9.82258C9.82258 9.83868 8.79359 8.45503 6.72958 8.45503C4.66558 8.45503 3.50028 9.83747 3.26384 12.6156H3.26504Z" fill="#F7A600"/>
  <path fill-rule="evenodd" clip-rule="evenodd" d="M14.2594 21.6767V6.76659H16.9568V9.56766C18.379 7.48073 20.1245 6.43848 22.1861 6.43848C23.4709 6.43848 24.4986 6.85224 25.2671 7.67254C26.0319 8.48801 26.4143 9.58696 26.4143 10.9694V21.6779H23.7182V11.844C23.7182 10.7402 23.5505 9.95489 23.2272 9.48684C22.9063 9.01275 22.3707 8.7727 21.6216 8.7727C19.9713 8.7727 18.4164 9.85838 16.9543 12.0273V21.6791H14.257L14.2594 21.6767Z" fill="#F7A600"/>
  <path fill-rule="evenodd" clip-rule="evenodd" d="M19.8193 21.6763V6.76619H22.5166V9.56726C23.8291 7.48033 25.5192 6.43807 27.5832 6.43807C29.6472 6.43807 30.9271 7.48033 31.6472 9.56726C32.9211 7.47309 34.587 6.4248 36.6317 6.4248C37.949 6.4248 38.9587 6.81806 39.6825 7.58769C40.4039 8.35974 40.7634 9.43818 40.7634 10.8315V21.6763H38.0576V11.2549C38.0576 9.55278 37.3857 8.70112 36.0419 8.70112C34.698 8.70112 33.1805 9.69392 31.6472 11.6819V21.6763H28.9391V11.2549C28.9391 9.54434 28.2539 8.68544 26.8847 8.68544C25.5155 8.68544 24.0692 9.68548 22.5154 11.6807V21.675H19.8181L19.8193 21.6763Z" fill="#A6A8AB"/>
  <path fill-rule="evenodd" clip-rule="evenodd" d="M54.1185 21.1937C52.3126 21.7426 50.7649 22.0152 49.479 22.0152C47.2883 22.0152 45.5018 21.2926 44.1097 19.8342C42.7308 18.3685 42.0408 16.4758 42.0408 14.1488C42.0408 11.8219 42.6488 10.0389 43.866 8.59135C45.0868 7.14498 46.6477 6.4248 48.5465 6.4248C50.3439 6.4248 51.7324 7.06536 52.7095 8.34526C53.6926 9.62637 54.1848 11.4455 54.1848 13.8075L54.1715 14.6434H44.7936C45.1869 18.1852 46.9131 19.9573 49.9832 19.9573C51.1027 19.9573 52.4839 19.6569 54.1173 19.0525V21.1937H54.1185ZM44.9203 12.6168H51.4742C51.4742 9.83988 50.444 8.45624 48.3812 8.45624C46.3184 8.45624 45.1555 9.83868 44.9203 12.6168Z" fill="#A6A8AB"/>
  <path fill-rule="evenodd" clip-rule="evenodd" d="M65.6086 21.6763V18.8728C64.5157 20.9694 62.8594 22.014 60.6519 22.014C58.8641 22.014 57.4539 21.3626 56.4225 20.0538C55.402 18.7437 54.8893 16.9572 54.8893 14.6845C54.8893 12.2055 55.4695 10.209 56.6288 8.69995C57.7929 7.19085 59.3285 6.4369 61.2273 6.4369C62.9909 6.4369 64.4493 7.11485 65.6086 8.46713V0H68.3156V21.6763H65.6086ZM65.6086 10.3224C64.2153 9.08597 62.8884 8.46833 61.6398 8.46833C59.0559 8.46833 57.7651 10.4491 57.7651 14.4118C57.7651 17.8981 58.9148 19.6412 61.214 19.6412C62.711 19.6412 64.1779 18.8233 65.6086 17.184V10.3224Z" fill="#A6A8AB"/>
  <path fill-rule="evenodd" clip-rule="evenodd" d="M70.9393 21.6759V6.76585H73.6342V21.6759H70.9393ZM70.9393 4.0625V1.36035H73.6342V4.06129H70.9393V4.0625Z" fill="#A6A8AB"/>
  <path fill-rule="evenodd" clip-rule="evenodd" d="M82.0857 22.0139C79.959 22.0139 78.2629 21.3142 76.9963 19.9016C75.7248 18.483 75.0915 16.5903 75.0915 14.2199C75.0915 11.8495 75.7248 9.92542 76.9963 8.53454C78.2726 7.13642 80 6.43555 82.1846 6.43555C84.3693 6.43555 86.0895 7.13642 87.3561 8.53454C88.6372 9.92421 89.2754 11.8133 89.2754 14.1897C89.2754 16.5662 88.6372 18.5385 87.3561 19.9294C86.081 21.3203 84.3234 22.0127 82.0857 22.0127V22.0139ZM82.1267 19.9849C84.9869 19.9849 86.4128 18.0512 86.4128 14.1909C86.4128 10.3307 85.0038 8.46698 82.1846 8.46698C79.3655 8.46698 77.9686 10.3826 77.9686 14.2199C77.9686 18.0572 79.3546 19.9849 82.1267 19.9849Z" fill="#A6A8AB"/>
  <path d="M127.608 10.1741V23.797V23.7825C127.602 22.844 126.982 22.0514 126.129 21.7861H126.134L107.546 15.2141C105.612 14.3588 104.264 12.4226 104.264 10.1729V0L126.249 8.20656C127.043 8.50694 127.607 9.27415 127.607 10.1741C127.607 10.1813 127.607 10.1885 127.607 10.1946" fill="#ED7300"/>
  <path d="M126.25 25.7655L104.265 33.9841V23.7967C104.265 21.547 105.614 19.6108 107.547 18.7556L126.126 12.1848H126.129C126.98 11.9194 127.6 11.1292 127.608 10.1943V10.1738V23.7967V23.7823C127.608 23.7823 127.608 23.7919 127.608 23.7967C127.608 24.7099 127.027 25.4868 126.214 25.7787" fill="#F7A600"/>
  <path d="M127.608 10.1738V10.1943C127.599 11.1304 126.98 11.9194 126.129 12.1835H126.126L112.543 16.9883L112.545 16.9823L126.134 21.7882H126.129C126.982 22.0512 127.602 22.845 127.608 23.7823" fill="#F18A00"/>
  <path d="M56.6795 24.885H59.3044C60.2261 24.885 60.9173 25.0008 61.442 25.1793C63.1321 25.768 64.0151 27.2023 64.0151 29.3266C64.0151 32.0795 62.4409 33.8455 59.3165 33.8455H56.6276L56.6783 24.8838L56.6795 24.885ZM59.2405 33.2701C61.7364 33.2701 63.2865 31.8491 63.2865 29.3146C63.2865 27.253 62.313 26.025 60.6748 25.6148C60.2647 25.5123 59.8039 25.4616 59.062 25.4616H57.4105L57.3599 33.2713H59.2417L59.2405 33.2701Z" fill="#3C3C3B"/>
  <path d="M65.5387 24.539C65.5387 24.1807 65.7824 23.8984 66.1274 23.8984C66.4724 23.8984 66.7293 24.1807 66.7293 24.539C66.7293 24.8973 66.4736 25.1795 66.1274 25.1795C65.7812 25.1795 65.5387 24.8973 65.5387 24.539ZM65.7824 27.2665H66.4736L66.4483 33.8469H65.757L65.7824 27.2665Z" fill="#3C3C3B"/>
  <path d="M68.7897 27.2667H69.4677V27.9447C69.4677 28.4308 69.4544 28.8663 69.4423 29.186H69.4677C69.7234 27.7782 70.6064 27.1123 71.6439 27.1123C71.9515 27.1123 72.2458 27.163 72.4762 27.2402L72.3604 27.8542C72.1433 27.777 71.8996 27.7384 71.6173 27.7384C70.4134 27.7384 69.4797 28.8783 69.4532 30.8881L69.4146 33.8448H68.7366L68.7873 27.2643L68.7897 27.2667Z" fill="#3C3C3B"/>
  <path d="M76.0227 33.3729C76.8551 33.3729 77.4824 33.1171 78.0578 32.8228L78.0325 33.5007C77.597 33.7444 76.7393 34.0001 75.9069 34.0001C73.7814 34.0001 72.6933 32.6298 72.6933 30.4415C72.6933 28.6236 73.7175 27.1133 75.586 27.1133C77.7502 27.1133 78.3509 28.8926 78.3509 30.5054H73.4219C73.4605 32.4126 74.3435 33.3729 76.0203 33.3729H76.0227ZM73.4243 29.9421H77.6235C77.6235 28.7515 76.983 27.7273 75.5619 27.7273C74.1409 27.7273 73.4497 28.8673 73.4243 29.9421Z" fill="#3C3C3B"/>
  <path d="M79.3124 30.5563C79.3124 28.5599 80.4258 27.1123 82.5646 27.1123C83.3077 27.1123 83.871 27.2788 84.3053 27.4706V28.1485C83.6913 27.8795 83.1533 27.7384 82.5127 27.7384C80.836 27.7384 80.0422 28.8518 80.0422 30.5551C80.0422 32.2584 80.7974 33.3719 82.5127 33.3719C83.0375 33.3719 83.6648 33.244 84.28 32.9883V33.6542C83.7552 33.8713 83.0254 34.0004 82.4874 34.0004C80.2859 34.0004 79.3124 32.4261 79.3124 30.5563Z" fill="#3C3C3B"/>
  <path d="M89.2199 33.0518L89.1559 33.667C88.8869 33.7949 88.3754 33.9999 87.6842 33.9999C86.5189 33.9999 85.9688 33.398 85.9821 32.0288L86.0207 27.8429H84.8554V27.2663H86.0207L86.034 25.5509L86.7119 25.499L86.6987 27.2663H88.8628V27.8429H86.6987L86.6601 31.7984C86.6468 32.989 86.9158 33.4245 87.8 33.4245C88.2741 33.4245 88.8628 33.2327 89.2211 33.053L89.2199 33.0518Z" fill="#3C3C3B"/>
  </svg>
  