<svg width="24" height="24" viewBox="0 0 24 24" fill="none" xmlns="http://www.w3.org/2000/svg">
<path d="M9.70833 2H3.45833C3.07169 2.00044 2.70102 2.15423 2.42762 2.42762C2.15423 2.70102 2.00044 3.07169 2 3.45833V7.20833C2.00044 7.59497 2.15423 7.96565 2.42762 8.23904C2.70102 8.51244 3.07169 8.66623 3.45833 8.66667H9.70833C10.095 8.66623 10.4656 8.51244 10.739 8.23904C11.0124 7.96565 11.1662 7.59497 11.1667 7.20833V3.45833C11.1662 3.07169 11.0124 2.70102 10.739 2.42762C10.4656 2.15423 10.095 2.00044 9.70833 2Z" fill="#252A3C"/>
<path d="M9.70833 10.334H3.45833C3.07169 10.3344 2.70102 10.4882 2.42762 10.7616C2.15423 11.035 2.00044 11.4057 2 11.7923L2 20.5423C2.00044 20.929 2.15423 21.2996 2.42762 21.573C2.70102 21.8464 3.07169 22.0002 3.45833 22.0007H9.70833C10.095 22.0002 10.4656 21.8464 10.739 21.573C11.0124 21.2996 11.1662 20.929 11.1667 20.5423V11.7923C11.1662 11.4057 11.0124 11.035 10.739 10.7616C10.4656 10.4882 10.095 10.3344 9.70833 10.334Z" fill="#252A3C"/>
<path d="M20.5416 15.334H14.2916C13.905 15.3344 13.5343 15.4882 13.2609 15.7616C12.9875 16.035 12.8338 16.4057 12.8333 16.7923V20.5423C12.8338 20.929 12.9875 21.2996 13.2609 21.573C13.5343 21.8464 13.905 22.0002 14.2916 22.0007H20.5416C20.9283 22.0002 21.299 21.8464 21.5724 21.573C21.8457 21.2996 21.9995 20.929 22 20.5423V16.7923C21.9995 16.4057 21.8457 16.035 21.5724 15.7616C21.299 15.4882 20.9283 15.3344 20.5416 15.334Z" fill="#252A3C"/>
<path d="M20.5416 2H14.2916C13.905 2.00044 13.5343 2.15423 13.2609 2.42762C12.9875 2.70102 12.8338 3.07169 12.8333 3.45833V12.2083C12.8338 12.595 12.9875 12.9656 13.2609 13.239C13.5343 13.5124 13.905 13.6662 14.2916 13.6667H20.5416C20.9283 13.6662 21.299 13.5124 21.5724 13.239C21.8457 12.9656 21.9995 12.595 22 12.2083V3.45833C21.9995 3.07169 21.8457 2.70102 21.5724 2.42762C21.299 2.15423 20.9283 2.00044 20.5416 2Z" fill="#252A3C"/>
</svg>
