<svg width="20" height="18" viewBox="0 0 20 18" fill="none" xmlns="http://www.w3.org/2000/svg">
<path d="M10 14.325C11.2 14.325 12.2083 13.9167 13.025 13.1C13.8417 12.2833 14.25 11.275 14.25 10.075C14.25 8.85833 13.8417 7.84583 13.025 7.0375C12.2083 6.22917 11.2 5.825 10 5.825C8.78333 5.825 7.77083 6.22917 6.9625 7.0375C6.15417 7.84583 5.75 8.85833 5.75 10.075C5.75 11.275 6.15417 12.2833 6.9625 13.1C7.77083 13.9167 8.78333 14.325 10 14.325ZM10 12.825C9.2 12.825 8.54167 12.5625 8.025 12.0375C7.50833 11.5125 7.25 10.8583 7.25 10.075C7.25 9.275 7.50833 8.61667 8.025 8.1C8.54167 7.58333 9.2 7.325 10 7.325C10.7833 7.325 11.4375 7.58333 11.9625 8.1C12.4875 8.61667 12.75 9.275 12.75 10.075C12.75 10.8583 12.4875 11.5125 11.9625 12.0375C11.4375 12.5625 10.7833 12.825 10 12.825ZM1.5 18C1.1 18 0.75 17.85 0.45 17.55C0.15 17.25 0 16.9 0 16.5V3.675C0 3.29167 0.15 2.94583 0.45 2.6375C0.75 2.32917 1.1 2.175 1.5 2.175H5.175L7 0H13L14.825 2.175H18.5C18.8833 2.175 19.2292 2.32917 19.5375 2.6375C19.8458 2.94583 20 3.29167 20 3.675V16.5C20 16.9 19.8458 17.25 19.5375 17.55C19.2292 17.85 18.8833 18 18.5 18H1.5Z" fill="black"/>
</svg>
