<svg width="22" height="20" viewBox="0 0 22 20" fill="none" xmlns="http://www.w3.org/2000/svg">
<path d="M22 3.73092V9.85503L9.14674 13.0675L5.88953 4.84109C5.8857 4.8362 5.88252 4.83084 5.88 4.82515L5.44838 3.73092L4.48879 1.27971H0.639951C0.470244 1.27971 0.307427 1.21228 0.187426 1.09228C0.0674252 0.972281 0 0.80956 0 0.639854C0 0.470147 0.0674252 0.307427 0.187426 0.187426C0.307427 0.0674252 0.470244 0 0.639951 0H4.92752C5.0559 0.000534961 5.18117 0.0395026 5.2872 0.111892C5.39323 0.184281 5.47521 0.286781 5.52246 0.406154L6.82131 3.73092H22Z" fill="#252A3C"/>
<path d="M5.88002 4.82469C5.86649 4.80121 5.85472 4.77678 5.84493 4.75149L5.44675 3.73047L5.88002 4.82469Z" fill="white"/>
<path d="M11.1169 19.1122C12.2718 19.1122 13.2081 18.1759 13.2081 17.0209C13.2081 15.866 12.2718 14.9297 11.1169 14.9297C9.96189 14.9297 9.0256 15.866 9.0256 17.0209C9.0256 18.1759 9.96189 19.1122 11.1169 19.1122Z" fill="#252A3C"/>
<path d="M19.3928 18.7626C20.5227 18.7626 21.4387 17.8467 21.4387 16.7168C21.4387 15.5869 20.5227 14.6709 19.3928 14.6709C18.2629 14.6709 17.3469 15.5869 17.3469 16.7168C17.3469 17.8467 18.2629 18.7626 19.3928 18.7626Z" fill="#252A3C"/>
</svg>
