<svg width="20" height="20" viewBox="0 0 20 20" fill="none" xmlns="http://www.w3.org/2000/svg">
<path d="M9.99956 12.5617V4.93457C9.7829 4.95457 9.56958 4.9879 9.35209 4.9979H3.12486C2.95911 4.9979 2.80014 5.06375 2.68294 5.18096C2.56573 5.29816 2.49989 5.45712 2.49989 5.62288V6.24785H0.624972C0.459219 6.24785 0.300255 6.31369 0.18305 6.4309C0.0658451 6.5481 0 6.70707 0 6.87282V10.6227C0 10.7884 0.0658451 10.9474 0.18305 11.0646C0.300255 11.1818 0.459219 11.2476 0.624972 11.2476H2.49989V11.8726C2.49989 12.0384 2.56573 12.1973 2.68294 12.3145C2.80014 12.4317 2.95911 12.4976 3.12486 12.4976H3.50318L6.01557 19.1948C6.09018 19.3913 6.21339 19.5657 6.37369 19.7016C6.53399 19.8376 6.72614 19.9307 6.93219 19.9722C7.13472 20.0153 7.34486 20.0062 7.54293 19.9459C7.741 19.8855 7.92051 19.7759 8.06464 19.6273L9.56458 18.139C9.75004 17.9528 9.87209 17.7128 9.91338 17.4533C9.95467 17.1937 9.91309 16.9278 9.79457 16.6932L7.69716 12.4976H9.35709C9.56958 12.5076 9.7854 12.5442 9.99956 12.5617Z" fill="#252A3C"/>
<path d="M19.8966 0.300677C19.8849 0.279914 19.8715 0.260128 19.8566 0.241513C19.7891 0.15239 19.6987 0.0832678 19.595 0.0415216C19.595 0.0415216 19.5883 0.0348552 19.585 0.0340219C19.5817 0.0331886 19.5608 0.0340219 19.5492 0.0340219C19.4928 0.0140002 19.4339 0.00221261 19.3741 -0.000976562C19.3328 0.00300281 19.292 0.0113833 19.2525 0.0240223C19.2289 0.0272609 19.2056 0.0317111 19.1825 0.0373551C19.0769 0.0709899 18.9822 0.132275 18.9083 0.214847C18.9033 0.219847 18.8958 0.22068 18.8908 0.22568C16.9457 2.57568 14.2441 4.17641 11.2487 4.75381V12.7426C14.2441 13.3197 16.9457 14.9201 18.8908 17.2699C18.8958 17.2766 18.905 17.2783 18.9108 17.2858C18.9556 17.3339 19.008 17.3744 19.0658 17.4058C19.085 17.4174 19.0992 17.4333 19.1183 17.4416C19.1987 17.4771 19.2855 17.4959 19.3733 17.4966C19.4451 17.496 19.5164 17.4837 19.5841 17.4599C19.5841 17.4599 19.5908 17.4541 19.5941 17.4524C19.6981 17.4111 19.7887 17.3419 19.8558 17.2524C19.8708 17.2324 19.8816 17.2149 19.8958 17.1941C19.9599 17.0985 19.9955 16.9867 19.9983 16.8716V0.623163C19.9958 0.50819 19.9605 0.396324 19.8966 0.300677Z" fill="#252A3C"/>
</svg>
