<svg width="18" height="16" viewBox="0 0 18 16" fill="none" xmlns="http://www.w3.org/2000/svg">
<path d="M0 1.857C0 1.14584 0.574553 0.571289 1.28571 0.571289H16.7143C17.4254 0.571289 18 1.14584 18 1.857C18 2.56816 17.4254 3.14272 16.7143 3.14272H1.28571C0.574553 3.14272 0 2.56816 0 1.857ZM0 8.28557C0 7.57441 0.574553 6.99986 1.28571 6.99986H16.7143C17.4254 6.99986 18 7.57441 18 8.28557C18 8.99674 17.4254 9.57129 16.7143 9.57129H1.28571C0.574553 9.57129 0 8.99674 0 8.28557ZM18 14.7141C18 15.4253 17.4254 15.9999 16.7143 15.9999H1.28571C0.574553 15.9999 0 15.4253 0 14.7141C0 14.003 0.574553 13.4284 1.28571 13.4284H16.7143C17.4254 13.4284 18 14.003 18 14.7141Z" fill="#F7A600"/>
</svg>
