<svg width="14" height="12" viewBox="0 0 14 12" fill="none" xmlns="http://www.w3.org/2000/svg">
<path d="M7.00004 2.66667V0H0.333374V12H13.6667V2.66667H7.00004ZM3.00004 10.6667H1.66671V9.33333H3.00004V10.6667ZM3.00004 8H1.66671V6.66667H3.00004V8ZM3.00004 5.33333H1.66671V4H3.00004V5.33333ZM3.00004 2.66667H1.66671V1.33333H3.00004V2.66667ZM5.66671 10.6667H4.33337V9.33333H5.66671V10.6667ZM5.66671 8H4.33337V6.66667H5.66671V8ZM5.66671 5.33333H4.33337V4H5.66671V5.33333ZM5.66671 2.66667H4.33337V1.33333H5.66671V2.66667ZM12.3334 10.6667H7.00004V9.33333H8.33337V8H7.00004V6.66667H8.33337V5.33333H7.00004V4H12.3334V10.6667ZM11 5.33333H9.66671V6.66667H11V5.33333ZM11 8H9.66671V9.33333H11V8Z" fill="#F7A600"/>
</svg>
