<svg width="14" height="14" viewBox="0 0 14 14" fill="none" xmlns="http://www.w3.org/2000/svg">
<path d="M7.00004 0.333008C3.32004 0.333008 0.333374 3.31967 0.333374 6.99967C0.333374 10.6797 3.32004 13.6663 7.00004 13.6663C10.68 13.6663 13.6667 10.6797 13.6667 6.99967C13.6667 3.31967 10.68 0.333008 7.00004 0.333008ZM7.00004 2.33301C8.10671 2.33301 9.00004 3.22634 9.00004 4.33301C9.00004 5.43967 8.10671 6.33301 7.00004 6.33301C5.89337 6.33301 5.00004 5.43967 5.00004 4.33301C5.00004 3.22634 5.89337 2.33301 7.00004 2.33301ZM7.00004 11.7997C6.20795 11.7997 5.42816 11.6037 4.73023 11.2291C4.03229 10.8545 3.43789 10.3131 3.00004 9.65301C3.02004 8.32634 5.66671 7.59967 7.00004 7.59967C8.32671 7.59967 10.98 8.32634 11 9.65301C10.5622 10.3131 9.96779 10.8545 9.26986 11.2291C8.57192 11.6037 7.79213 11.7997 7.00004 11.7997Z" fill="#344750"/>
</svg>
