<svg width="14" height="14" viewBox="0 0 14 14" fill="none" xmlns="http://www.w3.org/2000/svg">
<path d="M6.99935 8.70761V3.62305C6.85491 3.63638 6.7127 3.6586 6.56772 3.66527H2.41641C2.30591 3.66527 2.19994 3.70916 2.1218 3.7873C2.04367 3.86543 1.99978 3.9714 1.99978 4.0819V4.49853H0.749883C0.639385 4.49853 0.533414 4.54242 0.45528 4.62056C0.377147 4.69869 0.333252 4.80466 0.333252 4.91516V7.41495C0.333252 7.52544 0.377147 7.63142 0.45528 7.70955C0.533414 7.78768 0.639385 7.83158 0.749883 7.83158H1.99978V8.24821C1.99978 8.3587 2.04367 8.46468 2.1218 8.54281C2.19994 8.62095 2.30591 8.66484 2.41641 8.66484H2.66861L4.34346 13.1295C4.3932 13.2605 4.47534 13.3767 4.5822 13.4673C4.68906 13.558 4.81716 13.6201 4.95452 13.6477C5.08954 13.6764 5.22962 13.6704 5.36166 13.6302C5.4937 13.5899 5.61337 13.5169 5.70946 13.4178L6.70937 12.4256C6.83301 12.3015 6.91437 12.1415 6.94189 11.9685C6.96942 11.7955 6.9417 11.6182 6.86269 11.4618L5.46448 8.66484H6.57105C6.7127 8.6715 6.85658 8.69594 6.99935 8.70761Z" fill="#F7A600"/>
<path d="M13.5971 0.534102C13.5893 0.52026 13.5804 0.507071 13.5704 0.494661C13.5254 0.435248 13.4651 0.389168 13.396 0.361339C13.396 0.361339 13.3916 0.356895 13.3893 0.356339C13.3871 0.355784 13.3732 0.356339 13.3654 0.356339C13.3279 0.342992 13.2886 0.335134 13.2488 0.333008C13.2212 0.335661 13.194 0.341247 13.1677 0.349673C13.152 0.351832 13.1364 0.354799 13.121 0.358561C13.0506 0.380983 12.9875 0.421838 12.9383 0.476884C12.9349 0.480217 12.9299 0.480773 12.9266 0.484106C11.6299 2.05071 9.82891 3.11782 7.83203 3.50274V8.82839C9.82887 9.21307 11.6299 10.28 12.9266 11.8465C12.9299 11.8509 12.936 11.852 12.9399 11.857C12.9698 11.8891 13.0047 11.9161 13.0432 11.937C13.056 11.9448 13.0655 11.9553 13.0782 11.9609C13.1318 11.9846 13.1897 11.9971 13.2482 11.9976C13.2961 11.9972 13.3436 11.9889 13.3888 11.9731C13.3888 11.9731 13.3932 11.9692 13.3954 11.9681C13.4647 11.9406 13.5251 11.8945 13.5699 11.8348C13.5799 11.8215 13.5871 11.8098 13.5965 11.7959C13.6393 11.7322 13.663 11.6576 13.6649 11.5809V0.749083C13.6632 0.672438 13.6397 0.597864 13.5971 0.534102Z" fill="#F7A600"/>
</svg>
