<svg width="22" height="19" viewBox="0 0 22 19" fill="none" xmlns="http://www.w3.org/2000/svg">
<path d="M18 17H2V5C2 4.45 1.55 4 1 4C0.45 4 0 4.45 0 5V17C0 18.1 0.9 19 2 19H18C18.55 19 19 18.55 19 18C19 17.45 18.55 17 18 17Z" fill="#344750"/>
<path d="M20 2H13L11.59 0.59C11.21 0.21 10.7 0 10.17 0H6C4.9 0 4.01 0.9 4.01 2L4 13C4 14.1 4.9 15 6 15H20C21.1 15 22 14.1 22 13V4C22 2.9 21.1 2 20 2ZM17 11H9C8.90714 11 8.81612 10.9741 8.73713 10.9253C8.65815 10.8765 8.59431 10.8067 8.55279 10.7236C8.51126 10.6406 8.49368 10.5476 8.50202 10.4551C8.51036 10.3626 8.54429 10.2743 8.6 10.2L9.98 8.37C10.18 8.1 10.58 8.1 10.78 8.37L12 10L14.22 7.03C14.42 6.76 14.82 6.76 15.02 7.03L17.4 10.2C17.4557 10.2743 17.4896 10.3626 17.498 10.4551C17.5063 10.5476 17.4887 10.6406 17.4472 10.7236C17.4057 10.8067 17.3419 10.8765 17.2629 10.9253C17.1839 10.9741 17.0929 11 17 11Z" fill="#344750"/>
</svg>
