<svg width="12" height="15" viewBox="0 0 12 15" fill="none" xmlns="http://www.w3.org/2000/svg">
<path d="M8 0.666992H4V2.00033H8V0.666992ZM5.33333 9.33366H6.66667V5.33366H5.33333V9.33366ZM10.6867 4.92699L11.6333 3.98033C11.3467 3.64033 11.0333 3.32033 10.6933 3.04033L9.74667 3.98699C8.68489 3.13254 7.36289 2.66679 6 2.66699C2.68667 2.66699 0 5.35366 0 8.66699C0 11.9803 2.68 14.667 6 14.667C7.12954 14.6676 8.23628 14.3491 9.19275 13.7483C10.1492 13.1475 10.9165 12.2887 11.4063 11.2708C11.8961 10.253 12.0883 9.1175 11.961 7.99516C11.8337 6.87282 11.392 5.80927 10.6867 4.92699V4.92699ZM6 13.3337C3.42 13.3337 1.33333 11.247 1.33333 8.66699C1.33333 6.08699 3.42 4.00033 6 4.00033C8.58 4.00033 10.6667 6.08699 10.6667 8.66699C10.6667 11.247 8.58 13.3337 6 13.3337Z" fill="#FF4444"/>
</svg>
